<svg version="1.1" xmlns="http://www.w3.org/2000/svg" xmlns:xlink="http://www.w3.org/1999/xlink" width="16" height="16" viewBox="0,0,256,256"><g fill="#ffffff" fill-rule="nonzero" stroke="none" stroke-width="1" stroke-linecap="butt" stroke-linejoin="miter" stroke-miterlimit="10" stroke-dasharray="" stroke-dashoffset="0" font-family="none" font-weight="none" font-size="none" text-anchor="none" style="mix-blend-mode: normal"><g transform="scale(16,16)"><path d="M0,8c0,-4.41828 3.58172,-8 8,-8c4.41828,0 8,3.58172 8,8c0,4.41828 -3.58172,8 -8,8c-4.41828,0 -8,-3.58172 -8,-8zM7.5,1.077c-0.67,0.204 -1.335,0.82 -1.887,1.855c-0.18187,0.3441 -0.33829,0.70105 -0.468,1.068h2.355zM4.09,4c0.16667,-0.53118 0.38087,-1.04627 0.64,-1.539c0.17291,-0.32694 0.37259,-0.63901 0.597,-0.933c-1.239,0.51383 -2.30499,1.37162 -3.072,2.472zM3.508,7.5c0.03,-0.877 0.138,-1.718 0.312,-2.5h-2.146c-0.37288,0.78505 -0.59539,1.63301 -0.656,2.5zM4.847,5c-0.19669,0.8198 -0.30993,1.6574 -0.338,2.5h2.991v-2.5zM8.5,5v2.5h2.99c-0.02771,-0.84257 -0.14062,-1.68017 -0.337,-2.5zM4.51,8.5c0.02774,0.84257 0.14065,1.68016 0.337,2.5h2.653v-2.5zM8.5,8.5v2.5h2.653c0.187,-0.765 0.306,-1.608 0.338,-2.5zM5.145,12c0.138,0.386 0.295,0.744 0.468,1.068c0.552,1.035 1.218,1.65 1.887,1.855v-2.923zM5.327,14.472c-0.22443,-0.29398 -0.42411,-0.60605 -0.597,-0.933c-0.25912,-0.49274 -0.47332,-1.00782 -0.64,-1.539h-1.835c0.76696,1.10042 1.83297,1.95822 3.072,2.472zM3.82,11c-0.18084,-0.82194 -0.28528,-1.65883 -0.312,-2.5h-2.49c0.062,0.89 0.291,1.733 0.656,2.5zM10.673,14.472c1.23903,-0.51378 2.30504,-1.37158 3.072,-2.472h-1.835c-0.16669,0.53118 -0.38089,1.04626 -0.64,1.539c-0.17286,0.32697 -0.37254,0.63904 -0.597,0.933zM8.5,12v2.923c0.67,-0.204 1.335,-0.82 1.887,-1.855c0.173,-0.324 0.33,-0.682 0.468,-1.068zM12.18,11h2.146c0.365,-0.767 0.594,-1.61 0.656,-2.5h-2.49c-0.02671,0.84117 -0.13115,1.67807 -0.312,2.5zM14.982,7.5c-0.06064,-0.86699 -0.28314,-1.71494 -0.656,-2.5h-2.146c0.174,0.782 0.282,1.623 0.312,2.5zM11.27,2.461c0.247,0.464 0.462,0.98 0.64,1.539h1.835c-0.76696,-1.10042 -1.83297,-1.95822 -3.072,-2.472c0.218,0.284 0.418,0.598 0.597,0.933zM10.855,4c-0.1297,-0.36695 -0.28612,-0.72391 -0.468,-1.068c-0.552,-1.035 -1.217,-1.65 -1.887,-1.855v2.923z"></path></g></g></svg>