<svg version="1.1" xmlns="http://www.w3.org/2000/svg" xmlns:xlink="http://www.w3.org/1999/xlink" width="512.000000pt" height="512.000000pt" viewBox="0,0,256,256"><g fill="#ff9100" fill-rule="nonzero" stroke="none" stroke-width="1" stroke-linecap="butt" stroke-linejoin="miter" stroke-miterlimit="10" stroke-dasharray="" stroke-dashoffset="0" font-family="none" font-weight="none" font-size="none" text-anchor="none" style="mix-blend-mode: normal"><g transform="translate(-0.00218,0.04328) scale(0.5,0.5)"><g transform="translate(0,512) scale(0.1,-0.1)"><path d="M428,2993c-9,-10 -41,-68 -71,-129l-56,-111l-126,-18c-215,-31 -226,-61 -75,-208l100,-98l-20,-111c-25,-138 -25,-170 -2,-191c30,-27 59,-20 180,44l114,61l118,-61c125,-65 157,-72 183,-43c22,24 21,43 -4,186l-21,119l101,96c109,104 119,124 78,165c-19,19 -45,26 -153,40l-131,18l-59,120c-32,66 -67,124 -76,129c-27,14 -64,10 -80,-8z"></path><path d="M1480,3001c-8,-5 -42,-63 -74,-129l-59,-119l-126,-18c-130,-17 -165,-30 -176,-64c-9,-31 10,-59 108,-151l90,-85l-23,-134c-25,-149 -21,-175 27,-187c22,-6 52,5 150,55l122,63l114,-61c121,-65 154,-72 180,-43c22,24 21,63 -2,192l-20,105l100,101c70,72 99,108 99,125c0,52 -22,62 -178,85l-124,18l-55,110c-30,61 -62,119 -71,129c-16,18 -57,22 -82,8z"></path><path d="M2514,2993c-10,-10 -41,-68 -70,-129l-52,-111l-128,-17c-148,-21 -174,-32 -174,-79c0,-27 15,-46 97,-129l97,-97l-19,-118c-23,-142 -23,-172 1,-190c31,-22 58,-15 178,48l116,61l116,-61c120,-63 147,-70 178,-48c24,18 24,48 1,190l-19,118l97,97c82,83 97,102 97,129c0,47 -26,58 -173,79l-129,17l-60,121c-32,66 -64,124 -71,128c-21,14 -65,9 -83,-9z"></path><path d="M3558,2993c-9,-10 -41,-68 -71,-129l-55,-110l-124,-18c-156,-23 -178,-33 -178,-85c0,-17 29,-53 99,-125l100,-101l-20,-105c-24,-133 -24,-172 -1,-193c30,-27 58,-20 178,44l114,60l123,-62c98,-49 129,-61 150,-55c48,12 52,39 27,187l-23,134l90,85c98,92 118,120 108,151c-11,34 -46,47 -176,64l-126,18l-59,119c-32,66 -67,124 -76,129c-27,14 -64,10 -80,-8z"></path><path d="M4608,3000c-9,-6 -41,-61 -71,-124c-30,-62 -59,-116 -64,-119c-5,-3 -65,-14 -133,-23c-102,-15 -129,-22 -147,-40c-41,-41 -31,-61 78,-165l101,-96l-21,-119c-26,-145 -26,-166 -3,-187c30,-27 58,-20 182,44l116,61l116,-61c121,-65 155,-72 181,-43c22,24 21,55 -3,190l-20,111l100,98c150,147 141,174 -73,207l-132,21l-55,112c-30,61 -61,119 -69,127c-15,18 -57,21 -83,6zM4739,2640c11,-5 54,-15 96,-21l77,-12l-61,-61c-67,-68 -71,-81 -51,-186c6,-29 8,-55 6,-57c-2,-2 -36,12 -75,31c-39,20 -77,36 -86,36c-9,0 -47,-16 -86,-36c-39,-19 -72,-34 -74,-32c-2,2 1,26 6,53c21,108 18,121 -51,190l-62,62l78,12c43,6 87,18 99,25c11,7 36,46 55,85l34,72l38,-75c21,-41 47,-80 57,-86z"></path></g></g></g></svg>