<svg version="1.1" xmlns="http://www.w3.org/2000/svg" xmlns:xlink="http://www.w3.org/1999/xlink" width="16" height="16" viewBox="0,0,256,256"><g fill="#b3b1b1" fill-rule="nonzero" stroke="none" stroke-width="1" stroke-linecap="butt" stroke-linejoin="miter" stroke-miterlimit="10" stroke-dasharray="" stroke-dashoffset="0" font-family="none" font-weight="none" font-size="none" text-anchor="none" style="mix-blend-mode: normal"><g transform="translate(0.00972,-0.01628) scale(16,16)"><path d="M11.742,10.344c2.00834,-2.74053 1.56722,-6.56545 -1.01224,-8.77687c-2.57945,-2.21142 -6.42686,-2.06318 -8.8285,0.34018c-2.40164,2.40335 -2.54713,6.25087 -0.33386,8.82874c2.21327,2.57787 6.0385,3.01626 8.77759,1.00595h-0.001c0.03,0.04 0.062,0.078 0.098,0.115l3.85,3.85c0.39047,0.39074 1.02376,0.39097 1.4145,0.0005c0.39074,-0.39047 0.39097,-1.02376 0.0005,-1.4145l-3.85,-3.85c-0.03575,-0.03619 -0.0742,-0.06962 -0.115,-0.1zM12,6.5c0,3.03757 -2.46243,5.5 -5.5,5.5c-3.03757,0 -5.5,-2.46243 -5.5,-5.5c0,-3.03757 2.46243,-5.5 5.5,-5.5c3.03757,0 5.5,2.46243 5.5,5.5z"></path></g></g></svg>